inDegrees=no
num_controls=7
num_derivatives=13
num_iterations=159
num_multipliers=7
num_parameters=0
num_slacks=7
num_states=26
objective=5.460141
objective_accelerations=0.524740
objective_balance=0.009426
objective_effort=0.421459
objective_height=4.434674
objective_ligament=0.069842
solver_duration=1337.241182
status=Solve_Succeeded
success=true
DataType=double
version=3
OpenSimVersion=4.4-2022-07-23-0e9fedc
endheader
time	/jointset/ground_pelvis/pelvis_tilt/value	/jointset/ground_pelvis/pelvis_tx/value	/jointset/ground_pelvis/pelvis_ty/value	/jointset/hip_r/hip_flexion_r/value	/jointset/hip_r/hip_adduction_r/value	/jointset/hip_r/hip_rotation_r/value	/jointset/back/lumbar_extension/value	/jointset/patellofemoral_r/patellar_flexion_r/value	/jointset/knee_r/knee_flexion_r/value	/jointset/knee_r/knee_adduction_r/value	/jointset/knee_r/knee_rotation_r/value	/jointset/ankle_r/ankle_angle_r/value	/jointset/subtalar_r/subtalar_angle_r/value	/jointset/ground_pelvis/pelvis_tilt/speed	/jointset/ground_pelvis/pelvis_tx/speed	/jointset/ground_pelvis/pelvis_ty/speed	/jointset/hip_r/hip_flexion_r/speed	/jointset/hip_r/hip_adduction_r/speed	/jointset/hip_r/hip_rotation_r/speed	/jointset/back/lumbar_extension/speed	/jointset/patellofemoral_r/patellar_flexion_r/speed	/jointset/knee_r/knee_flexion_r/speed	/jointset/knee_r/knee_adduction_r/speed	/jointset/knee_r/knee_rotation_r/speed	/jointset/ankle_r/ankle_angle_r/speed	/jointset/subtalar_r/subtalar_angle_r/speed	/forceset/tau_hip_flexion_r	/forceset/tau_hip_adduction_r	/forceset/tau_hip_rotation_r	/forceset/tau_knee_flexion_r	/forceset/tau_ankle_angle_r	/forceset/tau_subtalar_angle_r	/forceset/tau_lumbar_extension	lambda_cid13_p0	lambda_cid14_p0	lambda_cid14_p1	lambda_cid14_p2	lambda_cid14_p3	lambda_cid14_p4	lambda_cid14_p5	/jointset/ground_pelvis/pelvis_tilt/accel	/jointset/ground_pelvis/pelvis_tx/accel	/jointset/ground_pelvis/pelvis_ty/accel	/jointset/hip_r/hip_flexion_r/accel	/jointset/hip_r/hip_adduction_r/accel	/jointset/hip_r/hip_rotation_r/accel	/jointset/back/lumbar_extension/accel	/jointset/patellofemoral_r/patellar_flexion_r/accel	/jointset/knee_r/knee_flexion_r/accel	/jointset/knee_r/knee_adduction_r/accel	/jointset/knee_r/knee_rotation_r/accel	/jointset/ankle_r/ankle_angle_r/accel	/jointset/subtalar_r/subtalar_angle_r/accel	gamma_cid13_p0	gamma_cid14_p0	gamma_cid14_p1	gamma_cid14_p2	gamma_cid14_p3	gamma_cid14_p4	gamma_cid14_p5
1.5	-0.05247131045881674	0.04059386956821079	0.8312233457250705	0.7381271837100495	-0.2191335838078872	-0.1441743237761129	-0.619063281575134	0.8914336789088917	0.8914336789088978	-0.05262765515818535	0.1745324727235295	0.2982071056216754	0.1462970350947473	0.3893535953233156	0.2076613922839267	0.4514956454516527	-1.818064658550967	0.02142230236894523	-0.172643216085699	0.8030618273534217	-1.844590765220259	-1.844590765220263	0.4358002621284053	-1.606401974869574e-05	-0.5208778007066046	-0.1787268463061712	-0.1397426861978436	-0.002025692672605793	0.01863343654209767	-0.305013639232904	0.01421924285301475	0.0002379004301438606	0.2004109012856784	-11.88079084928319	-37.55406827352093	-5.17747096919109	-0.2314424558639443	-2.390018059923915	-632.4281990971153	67.53021695147908	0.07965684539527604	0.5022415123994078	-0.4714374379170506	-0.8808604014262557	-0.1916211786059735	-0.6036407915621183	1.664589510683889	-1.189868558361346	-1.189868558361332	0.3675712502700994	-0.01442342678620969	-0.5286337589899899	-0.3254361534389938	1.028682741732238e-07	9.790225221188976e-08	-4.932188577730816e-07	1.116769586374972e-06	-2.811466235810264e-10	1.968170274964304e-07	-4.646827713957964e-07
1.51	-0.04857417921524868	0.04269532533197951	0.8357138180638083	0.7199045703568795	-0.21892962623323	-0.1459305707208337	-0.6109507895946686	0.8729307089754624	0.8729307089754686	-0.04825007265501297	0.1745323233146961	0.2929724108997314	0.1444927736860861	0.3900148889741448	0.212600008559102	0.4465051180991858	-1.826211321978548	0.01936357078949792	-0.1786118253287496	0.81931997286195	-1.855747868529847	-1.855747868529836	0.4396776975290808	-1.472511942847899e-05	-0.5259845693245955	-0.1820897279262307	-0.1332556216844895	-0.002972109403189391	0.0184051825479141	-0.3011643691869062	0.01584449519192703	-0.0007228415825531112	0.1942921157096989	-12.83828974490039	-36.82048444404094	-5.355359044677308	-0.3297759478005048	-2.409617472496052	-628.1774268559445	66.91296718313542	0.05070927910092205	0.4852139764659463	-0.52687555928192	-0.7445545608773099	-0.21374373942158	-0.5941358890260993	1.588937689312465	-1.040349459643779	-1.040349459641478	0.3919712820586281	0.007449944264270795	-0.4901867898247105	-0.3363448283560178	1.048782929064206e-07	8.820428362145801e-08	-6.109539273818127e-07	1.039763148178747e-06	1.666207085016731e-08	2.004164838926278e-07	-5.509982801860264e-07
1.52	-0.0446721663043363	0.0448452757167779	0.8401515820939474	0.7016078933199447	-0.2187464048927287	-0.1477466367376549	-0.6026792140354426	0.8543238243604622	0.8543238243604641	-0.0438348874784149	0.1745321947740202	0.2876889508162832	0.1426559573288109	0.3903299287919387	0.2173603164898627	0.4409539837319032	-1.832877395304259	0.0172750555377521	-0.1846070305057822	0.8348785431054818	-1.865373701534885	-1.865373701534859	0.4433207968134508	-1.189038618272706e-05	-0.5306308730074293	-0.1852378360289541	-0.1267685571711294	-0.003918526133773258	0.01817692855372129	-0.2973150991409082	0.01746974753083897	-0.001683583595250351	0.1881733301337249	-13.79306235146719	-36.08809139749629	-5.530507847355459	-0.4319134913428766	-2.442568718110703	-623.9525645896247	66.3502051875416	0.01040607878826705	0.4665798435164525	-0.5835588408801948	-0.5847423810520902	-0.1975779130656898	-0.6089599783585268	1.524674457684573	-0.8836144974515261	-0.883614497451523	0.320704027008988	-0.01412426020103213	-0.4365407719585908	-0.2824814499718076	1.068948954735449e-07	7.751835469848184e-08	-7.407042631296777e-07	9.356986110657862e-07	3.498593922057192e-08	2.017850935098916e-07	-6.310343985140081e-07
1.53	-0.04076873338415025	0.04704189905205262	0.8445310929221356	0.6832519769848648	-0.2185841362038839	-0.1496231898327972	-0.5942557116567196	0.835628371729947	0.8356283717299425	-0.03938485442726813	0.1745322932868756	0.2823614130338225	0.1407888885334113	0.3902965886117064	0.2219301885356984	0.4348600463623501	-1.838051109870494	0.01517526774362511	-0.1906911134507321	0.8496908204534781	-1.873447452707085	-1.873447452707071	0.446655684851604	2.225897425293296e-05	-0.5347925222727531	-0.1881369300435122	-0.1201598386805217	-0.005181487902124541	0.0179881810436201	-0.2937771447335847	0.01933441754216257	-0.002632995275170343	0.1819689466270135	-14.74170531625724	-35.2909786158711	-5.688824388390811	-0.5373962512410312	-2.506232276097278	-619.9210736137635	65.9083593200811	-0.0192090839379477	0.4470796549792752	-0.6354914670717939	-0.4454645071797174	-0.2166535605152341	-0.6060920698627279	1.439837545542658	-0.7288716481947976	-0.7288716481967326	0.335242453423568	0.01090087800225113	-0.3933183219387481	-0.2878384192645099	1.089184933642172e-07	6.578271792217726e-08	-8.832208191503725e-07	8.028848438537928e-07	5.477674916867378e-08	2.007834284245387e-07	-7.04398664475851e-07
1.54	-0.03686743486926702	0.04928319886175819	0.8488470283202126	0.6648519678015706	-0.2184429602625669	-0.1515601756808475	-0.5856880198700791	0.816860258343485	0.8168602583434861	-0.0349024002435023	0.1745324765620812	0.2769947904950845	0.1388939857894526	0.3899030477311125	0.2262956113760319	0.4282388977096437	-1.841695964947546	0.0130565060323353	-0.196693581087662	0.8637164246888914	-1.87990585272291	-1.87990585272291	0.4498050233379606	5.062088141514818e-06	-0.538447824262856	-0.1908046257407373	-0.1135511201899046	-0.006444449670468789	0.01779943353360596	-0.290239190326252	0.02119908755348751	-0.003582406955080945	0.175764563120309	-15.68177328545233	-34.49527878192396	-5.845702902048943	-0.6450337225106283	-2.579837543353304	-615.9149654631161	65.5127129142496	-0.06163406128400253	0.4256900024159909	-0.689001097510871	-0.2789704832154674	-0.201372696498245	-0.5926369167544731	1.367339835167989	-0.5605442661767228	-0.5605442661767216	0.2835941166496558	-0.02439350951047652	-0.3352713169144529	-0.2362017865051761	1.111726345728981e-07	5.47710982075292e-08	-1.023965567300481e-06	6.692686012380811e-07	7.397254103846261e-08	1.998438629824269e-07	-7.696122823912787e-07
